<?xml version="1.0" encoding="UTF-8"?>
<svg id="Layer_2" data-name="Layer 2" xmlns="http://www.w3.org/2000/svg" xmlns:xlink="http://www.w3.org/1999/xlink" viewBox="0 0 1595.94 447.43">
  <defs>
    <style>
      .cls-1 {
        fill: url(#linear-gradient-8);
      }

      .cls-2 {
        fill: url(#linear-gradient-7);
      }

      .cls-3 {
        fill: url(#linear-gradient-5);
      }

      .cls-4 {
        fill: url(#linear-gradient-6);
      }

      .cls-5 {
        fill: url(#linear-gradient-9);
      }

      .cls-6 {
        fill: url(#linear-gradient-4);
      }

      .cls-7 {
        fill: url(#linear-gradient-3);
      }

      .cls-8 {
        fill: url(#linear-gradient-2);
      }

      .cls-9 {
        fill: #e6513a;
      }

      .cls-10 {
        fill: url(#linear-gradient);
      }

      .cls-11 {
        isolation: isolate;
      }

      .cls-12, .cls-13 {
        fill: #1d341a;
      }

      .cls-14 {
        fill: #fafbf8;
      }

      .cls-15 {
        fill: #2f5b2c;
        font-family: BrushScriptMT, 'Brush Script MT';
        font-size: 352.59px;
        letter-spacing: .01em;
      }

      .cls-16 {
        fill: url(#linear-gradient-10);
      }

      .cls-13 {
        font-family: Georgia, Georgia;
        font-size: 268.04px;
        letter-spacing: .01em;
      }

      .cls-17 {
        fill: #7eaf41;
      }
    </style>
    <linearGradient id="linear-gradient" x1="-2415.12" y1="-2617.88" x2="-2370.11" y2="-2617.88" gradientTransform="translate(9660.4788 -10259.1006) scale(4 -4)" gradientUnits="userSpaceOnUse">
      <stop offset="0" stop-color="#488c54"/>
      <stop offset="1" stop-color="#325c36"/>
    </linearGradient>
    <linearGradient id="linear-gradient-2" x1="-2392.62" y1="-2619.53" x2="-2392.62" y2="-2640.38" gradientTransform="translate(9660.4788 -10259.1006) scale(4 -4)" gradientUnits="userSpaceOnUse">
      <stop offset="0" stop-color="#325c36" stop-opacity="0"/>
      <stop offset="1" stop-color="#325c36"/>
    </linearGradient>
    <linearGradient id="linear-gradient-3" x1="-2393.73" y1="-2594.65" x2="-2382.34" y2="-2594.65" gradientTransform="translate(9660.4788 -10259.1006) scale(4 -4)" gradientUnits="userSpaceOnUse">
      <stop offset="0" stop-color="#386239"/>
      <stop offset="1" stop-color="#203321"/>
    </linearGradient>
    <linearGradient id="linear-gradient-4" x1="-2330.33" y1="-2516.28" x2="-2278.43" y2="-2516.28" gradientTransform="translate(9994.8073 -9153.6851) rotate(8.7953) scale(3.607 -4.289)" xlink:href="#linear-gradient"/>
    <linearGradient id="linear-gradient-5" x1="-2329.3" y1="-2515.81" x2="-2279.48" y2="-2515.81" gradientTransform="translate(9994.8073 -9153.6851) rotate(8.7953) scale(3.607 -4.289)" gradientUnits="userSpaceOnUse">
      <stop offset="0" stop-color="#eaefe8"/>
      <stop offset="1" stop-color="#afd8a0"/>
    </linearGradient>
    <linearGradient id="linear-gradient-6" x1="-2306.96" y1="-2524.6" x2="-2306.96" y2="-2530.78" gradientTransform="translate(9994.8073 -9153.6851) rotate(8.7953) scale(3.607 -4.289)" gradientUnits="userSpaceOnUse">
      <stop offset="0" stop-color="#afd8a0" stop-opacity="0"/>
      <stop offset=".97" stop-color="#afd8a0"/>
    </linearGradient>
    <linearGradient id="linear-gradient-7" x1="-2326.25" y1="-2514.95" x2="-2282.63" y2="-2514.95" gradientTransform="translate(9994.8073 -9153.6851) rotate(8.7953) scale(3.607 -4.289)" gradientUnits="userSpaceOnUse">
      <stop offset="0" stop-color="#e63b55"/>
      <stop offset="1" stop-color="#c62032"/>
    </linearGradient>
    <linearGradient id="linear-gradient-8" x1="-2307.03" y1="-2520.71" x2="-2307.03" y2="-2527.86" gradientTransform="translate(9994.8073 -9153.6851) rotate(8.7953) scale(3.607 -4.289)" gradientUnits="userSpaceOnUse">
      <stop offset="0" stop-color="#c62032" stop-opacity="0"/>
      <stop offset=".97" stop-color="#c62032"/>
    </linearGradient>
    <linearGradient id="linear-gradient-9" x1="-2391.92" y1="-2593.97" x2="-2391.92" y2="-2598.72" gradientTransform="translate(9660.4788 -10259.1006) scale(4 -4)" gradientUnits="userSpaceOnUse">
      <stop offset="0" stop-color="#203321" stop-opacity="0"/>
      <stop offset=".98" stop-color="#203321"/>
    </linearGradient>
    <linearGradient id="linear-gradient-10" x1="-2395.66" y1="-2598.52" x2="-2388.76" y2="-2598.52" xlink:href="#linear-gradient-3"/>
  </defs>
  <g id="Layer_1-2" data-name="Layer 1">
    <g>
      <g>
        <text class="cls-11" transform="translate(257.74 287.51)"><tspan class="cls-13" x="0" y="0">Melon</tspan><tspan class="cls-15" x="773.73" y="0">Book</tspan></text>
        <g>
          <g>
            <path class="cls-12" d="M652.78,425.93h-16.77c-3.71-5.82-7.07-10.86-10.07-15.1s-6.25-8.62-9.76-13.13h-6.38v19.75c0,1.02.16,1.93.48,2.7.32.78,1.01,1.37,2.06,1.78.53.2,1.45.39,2.77.57s2.43.28,3.34.31v3.12h-26.34v-3.12c.7-.06,1.72-.16,3.05-.31,1.33-.15,2.26-.34,2.79-.57.88-.38,1.52-.94,1.91-1.67.39-.73.59-1.67.59-2.81v-45.04c0-1.02-.15-1.93-.44-2.72-.29-.79-.98-1.39-2.06-1.8-.73-.26-1.68-.5-2.85-.72-1.17-.22-2.17-.36-2.99-.42v-3.12h28.75c2.63,0,5.11.27,7.42.81,2.31.54,4.4,1.41,6.28,2.61,1.81,1.17,3.26,2.7,4.35,4.59,1.08,1.89,1.62,4.16,1.62,6.83,0,2.4-.37,4.52-1.1,6.37-.73,1.84-1.82,3.44-3.25,4.79-1.32,1.26-2.9,2.35-4.74,3.27-1.84.92-3.88,1.71-6.1,2.35,3.07,4.07,5.63,7.49,7.66,10.27,2.03,2.78,4.53,6.16,7.49,10.14,1.29,1.76,2.45,3.05,3.49,3.89,1.04.83,2.07,1.51,3.09,2.04.76.38,1.71.67,2.85.88,1.14.2,2.09.32,2.85.35v3.12ZM629.68,379.51c0-3.77-1.08-6.76-3.25-8.96-2.17-2.21-5.22-3.31-9.17-3.31h-7.46v26.69h5.75c4.04,0,7.4-1.29,10.1-3.88,2.69-2.59,4.04-6.1,4.04-10.54Z"/>
            <path class="cls-12" d="M696.13,425.14c-1.38.5-2.58.9-3.62,1.21s-2.22.46-3.53.46c-2.28,0-4.1-.53-5.47-1.6-1.36-1.07-2.23-2.63-2.61-4.68h-.26c-1.9,2.11-3.94,3.72-6.12,4.83-2.18,1.11-4.81,1.67-7.88,1.67-3.25,0-5.92-1-8.01-2.99-2.09-1.99-3.14-4.59-3.14-7.81,0-1.67.23-3.16.7-4.48s1.17-2.5,2.11-3.56c.73-.88,1.7-1.66,2.9-2.35,1.2-.69,2.33-1.24,3.38-1.65,1.32-.5,3.99-1.42,8.01-2.77,4.02-1.35,6.74-2.4,8.14-3.16v-4.35c0-.38-.08-1.11-.24-2.19-.16-1.08-.51-2.11-1.03-3.07-.59-1.08-1.41-2.03-2.48-2.83-1.07-.8-2.58-1.21-4.54-1.21-1.35,0-2.6.23-3.75.68-1.16.45-1.97.93-2.44,1.43,0,.59.14,1.45.42,2.59.28,1.14.42,2.19.42,3.16,0,1.02-.46,1.96-1.38,2.81s-2.2,1.27-3.84,1.27c-1.46,0-2.54-.52-3.23-1.56-.69-1.04-1.03-2.2-1.03-3.49s.48-2.63,1.43-3.86c.95-1.23,2.19-2.33,3.71-3.29,1.32-.82,2.91-1.51,4.78-2.08s3.7-.86,5.49-.86c2.46,0,4.6.17,6.43.51,1.83.34,3.49,1.06,4.98,2.17,1.49,1.08,2.63,2.55,3.4,4.41.78,1.86,1.16,4.25,1.16,7.18,0,4.19-.04,7.9-.13,11.13-.09,3.23-.13,6.77-.13,10.6,0,1.14.2,2.05.59,2.72.4.67,1,1.24,1.82,1.71.44.26,1.13.41,2.09.44.95.03,1.92.04,2.92.04v2.81ZM680.81,401.97c-2.49.73-4.67,1.45-6.54,2.16-1.87.7-3.61,1.58-5.22,2.64-1.46,1-2.62,2.18-3.47,3.54-.85,1.36-1.27,2.98-1.27,4.86,0,2.43.64,4.22,1.91,5.37,1.27,1.14,2.89,1.72,4.85,1.72,2.08,0,3.91-.51,5.49-1.52,1.58-1.01,2.91-2.21,3.99-3.59l.26-15.18Z"/>
            <path class="cls-12" d="M698.22,440.07c0-1.46.4-2.66,1.21-3.58.8-.92,1.81-1.38,3.01-1.38.94,0,1.74.17,2.41.52.67.35,1.27.8,1.8,1.35.44.44.91,1.03,1.4,1.79.5.76.89,1.38,1.19,1.87,1.46-.79,3.21-2.85,5.24-6.18,2.03-3.33,3.5-6.25,4.41-8.76-2.78-6.93-5.3-13.14-7.55-18.61-2.25-5.47-4.61-11.13-7.07-16.98-.56-1.35-1.49-2.39-2.81-3.14-1.32-.75-2.63-1.22-3.95-1.43v-2.9h19.76v3.07c-.88.03-1.93.21-3.16.55s-1.84.72-1.84,1.16c0,.17.07.47.2.88s.29.83.46,1.27c1.11,2.9,2.8,7.07,5.08,12.52,2.28,5.45,4.04,9.82,5.3,13.09,1.32-3.13,2.69-6.37,4.11-9.72,1.42-3.35,3.01-7.3,4.77-11.87.21-.56.5-1.32.88-2.3.38-.98.57-1.82.57-2.52,0-.76-.67-1.47-2-2.13-1.33-.66-2.6-1.06-3.8-1.21v-2.81h16.08v2.72c-.88.15-2.03.65-3.47,1.51-1.43.86-2.5,2.08-3.2,3.67-3.48,8.08-6.58,15.44-9.28,22.08-2.71,6.64-4.76,11.53-6.17,14.66-1.84,4.1-3.49,7.29-4.94,9.59-1.45,2.3-2.86,4.1-4.24,5.42-1.35,1.23-2.57,2.05-3.67,2.48-1.1.42-2.23.64-3.4.64-2.28,0-4.08-.54-5.38-1.62-1.3-1.08-1.95-2.33-1.95-3.73Z"/>
            <path class="cls-12" d="M820.9,425.93h-21.07v-2.9c.67-.06,1.35-.12,2.04-.18.69-.06,1.3-.17,1.82-.35.82-.26,1.43-.72,1.82-1.38.39-.66.59-1.51.59-2.57v-22.35c0-3.04-.7-5.39-2.09-7.05s-3.12-2.48-5.2-2.48c-1.43,0-2.78.22-4.04.66-1.26.44-2.41,1.05-3.47,1.84-.85.64-1.56,1.34-2.13,2.08-.57.75-1,1.37-1.29,1.87v24.98c0,1.02.18,1.87.53,2.52.35.66.95,1.16,1.8,1.51.67.26,1.28.46,1.82.59.54.13,1.25.23,2.13.29v2.9h-20.63v-2.9c.67-.06,1.32-.12,1.95-.18.63-.06,1.21-.17,1.73-.35.82-.26,1.43-.72,1.82-1.38.4-.66.59-1.51.59-2.57v-22.35c0-3.04-.7-5.39-2.09-7.05-1.39-1.65-3.13-2.48-5.21-2.48-1.44,0-2.79.23-4.05.68-1.26.45-2.42,1.07-3.48,1.87-.85.64-1.57,1.37-2.16,2.17s-1.03,1.41-1.32,1.82v24.8c0,1,.2,1.83.61,2.5.41.67,1.02,1.18,1.84,1.54.61.29,1.24.51,1.89.66s1.36.25,2.15.31v2.9h-21.03v-2.9c.67-.06,1.37-.12,2.09-.18.72-.06,1.34-.17,1.87-.35.82-.26,1.43-.72,1.82-1.38.4-.66.59-1.51.59-2.57v-26.88c0-.94-.21-1.78-.64-2.52-.42-.75-1.02-1.38-1.78-1.91-.56-.35-1.24-.64-2.06-.86-.82-.22-1.67-.36-2.55-.42v-2.9l14.49-.97.61.61v6.19h.31c.73-.73,1.62-1.59,2.68-2.59s2.03-1.8,2.94-2.41c1.02-.7,2.3-1.29,3.84-1.76,1.54-.47,3.2-.7,4.98-.7,2.81,0,5.22.75,7.24,2.26,2.02,1.51,3.47,3.33,4.35,5.47,1.05-1.02,1.98-1.92,2.78-2.7.8-.78,1.86-1.6,3.18-2.48,1.11-.76,2.42-1.38,3.92-1.84,1.51-.47,3.18-.7,5.02-.7,3.65,0,6.54,1.2,8.68,3.6,2.13,2.4,3.2,6.09,3.2,11.06v21.99c0,1.02.18,1.87.53,2.52.35.66.95,1.16,1.8,1.51.67.26,1.34.46,2,.59.66.13,1.4.23,2.22.29v2.9Z"/>
            <path class="cls-12" d="M869.35,403.85c0,3.04-.48,6.04-1.45,8.98-.97,2.94-2.34,5.44-4.13,7.48-2.02,2.34-4.37,4.08-7.03,5.22-2.67,1.14-5.65,1.71-8.97,1.71-2.75,0-5.38-.52-7.87-1.56-2.49-1.04-4.7-2.55-6.64-4.54-1.9-1.96-3.42-4.35-4.55-7.18-1.13-2.82-1.69-5.99-1.69-9.5,0-6.76,1.97-12.29,5.91-16.59,3.94-4.3,9.1-6.45,15.49-6.45s11.07,2.04,15.01,6.12c3.94,4.08,5.91,9.52,5.91,16.31ZM860.26,403.94c0-2.19-.22-4.51-.66-6.96-.44-2.44-1.1-4.51-1.98-6.21-.94-1.81-2.17-3.27-3.69-4.37-1.52-1.1-3.39-1.65-5.59-1.65s-4.19.56-5.78,1.67c-1.6,1.11-2.9,2.63-3.89,4.57-.94,1.79-1.6,3.82-1.98,6.1-.38,2.28-.57,4.49-.57,6.63,0,2.81.23,5.41.68,7.79.45,2.39,1.18,4.51,2.18,6.39s2.25,3.34,3.76,4.41c1.51,1.07,3.38,1.6,5.61,1.6,3.66,0,6.57-1.77,8.71-5.31,2.14-3.54,3.21-8.43,3.21-14.66Z"/>
            <path class="cls-12" d="M924.47,425.93h-21.16v-2.9c.67-.06,1.41-.12,2.22-.18.8-.06,1.47-.17,2-.35.82-.26,1.43-.72,1.82-1.38.4-.66.59-1.51.59-2.57v-22.26c0-3.07-.73-5.44-2.18-7.11-1.45-1.67-3.22-2.5-5.3-2.5-1.55,0-2.98.24-4.27.72s-2.43,1.08-3.43,1.78c-.97.67-1.74,1.4-2.31,2.17-.57.78-.99,1.4-1.25,1.87v24.89c0,1,.2,1.81.61,2.46.41.64,1.02,1.14,1.84,1.49.61.29,1.28.51,2,.66.72.15,1.46.25,2.22.31v2.9h-21.2v-2.9c.67-.06,1.37-.12,2.09-.18.72-.06,1.34-.17,1.87-.35.82-.26,1.43-.72,1.82-1.38.4-.66.59-1.51.59-2.57v-26.7c0-.99-.21-1.91-.64-2.74-.42-.83-1.02-1.51-1.78-2.04-.56-.35-1.21-.61-1.98-.77-.76-.16-1.58-.27-2.46-.33v-2.9l14.4-.97.61.61v6.1h.22c.7-.7,1.58-1.54,2.63-2.52,1.05-.98,2.05-1.78,2.99-2.39,1.08-.7,2.37-1.29,3.86-1.76,1.49-.47,3.17-.7,5.05-.7,4.16,0,7.24,1.29,9.24,3.88,2,2.59,3.01,6.04,3.01,10.34v22.52c0,1.02.18,1.85.53,2.48s.95,1.12,1.8,1.47c.7.29,1.31.5,1.82.61.51.12,1.22.2,2.13.26v2.9Z"/>
          </g>
          <path class="cls-9" d="M986.33,399.62l-15.36,8.66c-3.39,5.74-6.79,11.15-10.19,16.26-3.41,5.1-6.43,9.32-9.07,12.65-2.64,3.33-4.92,5.87-6.84,7.62-1.93,1.75-3.35,2.63-4.27,2.63-1.23,0-2.23-.41-3-1.24-.77-.83-1.15-1.8-1.15-2.92,0-4.16,2.34-9.37,7.02-15.62,4.68-6.26,12.08-12.91,22.2-19.95,4.39-8.43,8.01-16.09,10.86-22.98,2.85-6.89,5.02-12.78,6.53-17.67,1.5-4.89,2.55-8.82,3.15-11.78.6-2.96.9-4.85.9-5.66,0-1.66-.64-2.48-1.91-2.48-1.04,0-2.57.6-4.59,1.79s-4.21,2.97-6.55,5.34c-2.35,2.37-4.54,5.11-6.58,8.23-2.04,3.08-3.9,6.54-5.57,10.37-1.67,3.83-2.97,7.36-3.87,10.6-.91,3.23-1.36,5.83-1.36,7.8,0,.5.08,1.6.23,3.29.35-.54.77-1.19,1.27-1.96.5-.77,1.14-1.56,1.91-2.37.77-.81,1.58-1.48,2.43-2.02.5-.38,1.1-.7,1.79-.95.69-.25,1.04-.22,1.04.09,0,.23-1.1,1.68-3.29,4.36-2.19,2.68-4.1,5.09-5.72,7.25-.92,1.23-2.16,2.39-3.7,3.47-1.54,1.08-2.79,1.62-3.75,1.62-1.15,0-1.92-.54-2.28-1.62-.37-1.08-.55-2.79-.55-5.14,0-5.66.97-11.95,2.92-18.88,1.94-6.93,4.55-13.01,7.82-18.25,2.66-4.16,5.91-7.92,9.76-11.29,3.85-3.37,7.59-6,11.23-7.88,3.64-1.89,6.5-2.83,8.58-2.83,2.54,0,4.5.8,5.89,2.4,1.39,1.6,2.08,3.8,2.08,6.61,0,1.39-.16,2.95-.49,4.68-.33,1.73-.74,3.48-1.24,5.25-.5,1.77-1.37,4.62-2.6,8.55-1.23,3.93-2.04,6.53-2.43,7.8-1.19,3.97-2.76,8.04-4.71,12.21-1.94,4.18-4.71,9.71-8.29,16.6l11.78-6.35v3.75Z"/>
          <g>
            <path class="cls-12" d="M1057.93,407.41l-1.32,18.53h-48.69v-3.12c.7-.06,1.72-.16,3.05-.31,1.33-.15,2.26-.34,2.79-.57.88-.38,1.52-.94,1.91-1.67.39-.73.59-1.67.59-2.81v-44.6c0-1-.17-1.87-.51-2.63s-1-1.38-2-1.84c-.67-.35-1.62-.7-2.83-1.03-1.21-.34-2.22-.53-3.01-.59v-3.12h26.3v3.12c-.82.03-1.88.18-3.18.44-1.3.26-2.25.5-2.83.7-1,.35-1.68.95-2.04,1.8-.37.85-.55,1.76-.55,2.72v41.84c0,1.93.09,3.43.29,4.5.19,1.07.64,1.9,1.34,2.48.67.53,1.67.87,3.01,1.03,1.33.16,3.2.24,5.6.24,1.08,0,2.21-.03,3.38-.09,1.17-.06,2.28-.18,3.34-.35,1.02-.17,1.97-.42,2.83-.72s1.5-.69,1.91-1.16c1.2-1.35,2.6-3.39,4.19-6.12,1.59-2.74,2.7-4.95,3.31-6.65h3.12Z"/>
            <path class="cls-12" d="M1103.13,425.14c-1.38.5-2.58.9-3.62,1.21s-2.22.46-3.53.46c-2.28,0-4.1-.53-5.47-1.6-1.36-1.07-2.23-2.63-2.61-4.68h-.26c-1.9,2.11-3.94,3.72-6.12,4.83-2.18,1.11-4.81,1.67-7.88,1.67-3.25,0-5.92-1-8.01-2.99-2.09-1.99-3.14-4.59-3.14-7.81,0-1.67.23-3.16.7-4.48s1.17-2.5,2.11-3.56c.73-.88,1.7-1.66,2.9-2.35,1.2-.69,2.33-1.24,3.38-1.65,1.32-.5,3.99-1.42,8.01-2.77,4.02-1.35,6.74-2.4,8.14-3.16v-4.35c0-.38-.08-1.11-.24-2.19-.16-1.08-.51-2.11-1.03-3.07-.59-1.08-1.41-2.03-2.48-2.83-1.07-.8-2.58-1.21-4.54-1.21-1.35,0-2.6.23-3.75.68-1.16.45-1.97.93-2.44,1.43,0,.59.14,1.45.42,2.59.28,1.14.42,2.19.42,3.16,0,1.02-.46,1.96-1.38,2.81s-2.2,1.27-3.84,1.27c-1.46,0-2.54-.52-3.23-1.56-.69-1.04-1.03-2.2-1.03-3.49s.48-2.63,1.43-3.86c.95-1.23,2.19-2.33,3.71-3.29,1.32-.82,2.91-1.51,4.78-2.08s3.7-.86,5.49-.86c2.46,0,4.6.17,6.43.51,1.83.34,3.49,1.06,4.98,2.17,1.49,1.08,2.63,2.55,3.4,4.41.78,1.86,1.16,4.25,1.16,7.18,0,4.19-.04,7.9-.13,11.13-.09,3.23-.13,6.77-.13,10.6,0,1.14.2,2.05.59,2.72.4.67,1,1.24,1.82,1.71.44.26,1.13.41,2.09.44.95.03,1.92.04,2.92.04v2.81ZM1087.81,401.97c-2.49.73-4.67,1.45-6.54,2.16-1.87.7-3.61,1.58-5.22,2.64-1.46,1-2.62,2.18-3.47,3.54-.85,1.36-1.27,2.98-1.27,4.86,0,2.43.64,4.22,1.91,5.37,1.27,1.14,2.89,1.72,4.85,1.72,2.08,0,3.91-.51,5.49-1.52,1.58-1.01,2.91-2.21,3.99-3.59l.26-15.18Z"/>
            <path class="cls-12" d="M1156.31,425.93h-21.16v-2.9c.67-.06,1.41-.12,2.22-.18.8-.06,1.47-.17,2-.35.82-.26,1.43-.72,1.82-1.38.4-.66.59-1.51.59-2.57v-22.26c0-3.07-.73-5.44-2.18-7.11-1.45-1.67-3.22-2.5-5.3-2.5-1.55,0-2.98.24-4.27.72s-2.43,1.08-3.43,1.78c-.97.67-1.74,1.4-2.31,2.17-.57.78-.99,1.4-1.25,1.87v24.89c0,1,.2,1.81.61,2.46.41.64,1.02,1.14,1.84,1.49.61.29,1.28.51,2,.66.72.15,1.46.25,2.22.31v2.9h-21.2v-2.9c.67-.06,1.37-.12,2.09-.18.72-.06,1.34-.17,1.87-.35.82-.26,1.43-.72,1.82-1.38.4-.66.59-1.51.59-2.57v-26.7c0-.99-.21-1.91-.64-2.74-.42-.83-1.02-1.51-1.78-2.04-.56-.35-1.21-.61-1.98-.77-.76-.16-1.58-.27-2.46-.33v-2.9l14.4-.97.61.61v6.1h.22c.7-.7,1.58-1.54,2.63-2.52,1.05-.98,2.05-1.78,2.99-2.39,1.08-.7,2.37-1.29,3.86-1.76,1.49-.47,3.17-.7,5.05-.7,4.16,0,7.24,1.29,9.24,3.88,2,2.59,3.01,6.04,3.01,10.34v22.52c0,1.02.18,1.85.53,2.48s.95,1.12,1.8,1.47c.7.29,1.31.5,1.82.61.51.12,1.22.2,2.13.26v2.9Z"/>
            <path class="cls-12" d="M1210.12,425.14l-15.14.97-.66-.61v-4.04l-.35-.09c-1.52,1.7-3.4,3.09-5.63,4.17-2.24,1.08-4.54,1.62-6.9,1.62s-4.83-.55-7.12-1.65c-2.29-1.1-4.29-2.64-5.98-4.63-1.72-2.02-3.09-4.45-4.1-7.29-1.01-2.84-1.51-5.97-1.51-9.39,0-3.13.54-6.1,1.62-8.91,1.08-2.81,2.57-5.27,4.47-7.38,1.78-1.96,3.97-3.53,6.55-4.7,2.59-1.17,5.22-1.76,7.91-1.76,2.02,0,4,.26,5.94.77,1.94.51,3.62,1.16,5.02,1.95v-15.09c0-1.23-.21-2.35-.61-3.36-.41-1.01-.98-1.78-1.71-2.31-.82-.56-1.92-.96-3.31-1.21-1.39-.25-2.89-.43-4.5-.55v-2.72l17.73-.97.66.66v58.35c0,1.02.2,1.9.59,2.61.4.72.97,1.32,1.73,1.82.56.35,1.36.57,2.41.66,1.05.09,2.02.15,2.9.18v2.9ZM1194.23,417.55v-25.33c-.23-.76-.61-1.58-1.14-2.46-.53-.88-1.18-1.68-1.97-2.41-.85-.73-1.84-1.34-2.98-1.82-1.14-.48-2.47-.72-3.99-.72-1.75,0-3.37.45-4.84,1.36-1.48.91-2.78,2.21-3.92,3.91-1.08,1.64-1.94,3.73-2.56,6.26-.63,2.53-.94,5.33-.94,8.41,0,2.46.23,4.69.7,6.69.47,2.01,1.26,3.87,2.37,5.6,1.02,1.64,2.33,2.96,3.92,3.95,1.59,1,3.48,1.49,5.67,1.49,2.34,0,4.27-.51,5.81-1.54,1.53-1.02,2.83-2.15,3.88-3.38Z"/>
          </g>
          <g>
            <path class="cls-12" d="M1221.17,426.25h-3.58v-18.54h3.58v18.54Z"/>
            <path class="cls-12" d="M1235.64,407.7h3.58v18.54h-3.58l-6.33-10.51c-.39-.64-.73-1.27-1.03-1.9-.3-.62-.56-1.27-.78-1.95h-.08c.15.77.26,1.52.34,2.24.08.72.12,1.38.12,1.97v10.15h-3.58v-18.54h3.85l6.05,10.51c.39.64.73,1.27,1.03,1.9.3.62.56,1.27.78,1.95h.08c-.15-.77-.26-1.52-.34-2.24-.08-.72-.12-1.38-.12-1.97v-10.15Z"/>
            <path class="cls-12" d="M1250.3,426.58c-1.43,0-2.7-.24-3.81-.73-1.11-.49-2.04-1.16-2.79-2.02-.75-.86-1.32-1.88-1.71-3.05-.39-1.17-.58-2.44-.58-3.8s.19-2.62.58-3.8c.39-1.17.95-2.19,1.71-3.05.75-.86,1.68-1.54,2.79-2.02,1.11-.49,2.38-.73,3.81-.73,1.01,0,1.93.1,2.78.3.84.2,1.66.51,2.45.94l-.88,2.72c-1.3-.7-2.66-1.05-4.07-1.05-1.85,0-3.25.59-4.18,1.76-.94,1.17-1.4,2.82-1.4,4.92s.47,3.75,1.42,4.92c.94,1.17,2.33,1.76,4.17,1.76.55,0,1.21-.09,1.97-.28.76-.18,1.52-.48,2.27-.88l.83,2.75c-.73.42-1.55.75-2.46.98-.91.23-1.87.34-2.87.34Z"/>
            <path class="cls-12" d="M1257.12,424.46c0-.57.19-1.07.58-1.5s.94-.65,1.65-.65,1.27.22,1.65.65.58.93.58,1.5-.19,1.07-.58,1.5-.94.65-1.65.65-1.27-.22-1.65-.65-.58-.93-.58-1.5Z"/>
          </g>
        </g>
      </g>
      <g>
        <g>
          <path class="cls-10" d="M160.13,268.85c-31.17,38.73-87.83,44.85-126.55,13.69-38.73-31.17-44.85-87.83-13.69-126.55,16.46-20.46,41.04-32.71,67.29-33.53l6.15.02c49.72,1.88,88.5,43.72,86.62,93.44-.21,5.42-.9,10.82-2.08,16.12l-17.74,36.83Z" data-original="url(#b)"/>
          <path class="cls-8" d="M.27,219.02c3.64,49.57,46.77,86.8,96.34,83.16,24.88-1.83,47.88-13.9,63.52-33.33l17.74-36.83c.94-4.28,1.57-8.63,1.87-13H.27Z" data-original="url(#e)"/>
          <path class="cls-7" d="M85.74,134.93c-1.32-12.11,5.16-23.73,16.16-28.97,9.69-4.95,21.47-3.13,29.22,4.53l-5.79,5.48c-5.34-5.12-13.36-6.27-19.92-2.85-16.46,8.07-10.49,26.35-11.65,22.02l-8.02-.21Z" data-original="url(#d)"/>
          <path class="cls-17" d="M30.73,190.59l9.72-11.64,4.17-12.66,18.05-9.02,5.55-9.03v-9.72l-17.36,1.49s-8.33,15.17-10.41,16.56-11.8,4.86-14.58,6.94c-2.78,2.08-6.94,19.44-6.94,19.44,0,0-7.64,9.72-9.03,12.5s2.08,17.74.69,19.28c-1.36,1.51-7.12,20.75-7.36,21.57,1.68,6.12,4.01,12.04,6.94,17.67l8.05-14.44v-19.09l12.5-11.8v-18.05Z" data-original="url(#a)"/>
          <path class="cls-17" d="M139.35,244.36l-8.24-21.83,3.06-6.25-6.94-8.33,3.88-15.97-5.27-11.11,2.78-13.89-11.11-15.27-12.5,3.47,9.02,14.58-6.94,19.44,6.94,11.11-5.68,18.74,4.99,8.44-12.1,29.76,38.1-12.9Z" data-original="url(#f)"/>
          <path class="cls-17" d="M83.49,155.18l-18.75,20.14-2.78,18.74-9.72,17.36.69,19.47-8.33,13.68,2.38,14.28-10.01,11.27,3.26,17.28c8.37,5.57,17.62,9.7,27.35,12.2l-3.53-38.89,6.25-11.86-3.47-9.32,7.64-14.23-2.08-13.89,13.22-17.36-2.11-15.97,6.52-20.83-6.52-2.08Z" data-original="url(#g)"/>
          <path class="cls-17" d="M137.46,135.94l-10.23,6.75,15.53,8.33,2.52,13.19,12.71,11.8-.9,14.58,9.03,9.29-.69,10.32,4.16,2.21-7.54,19.57,16.24-2.03c7.35-36.78-8.93-74.26-40.82-94.01Z" data-original="url(#h)"/>
          <path class="cls-6" d="M183.74,201.55l49.08-13.5c-4.46,67.48-54.33,120.79-111.39,119.08-37.27-1.12-70.09-25.89-85.88-64.83l49.36-13.57,98.83-27.18Z" data-original="url(#i)"/>
          <path class="cls-3" d="M229.29,189.02l-45.55,12.53-98.83,27.18-45.44,12.5c21.26,44.95,64.01,69.66,107.89,57.59,43.89-12.07,75.77-57.31,81.93-109.8h0Z" data-original="url(#j)"/>
          <path class="cls-4" d="M54.2,265.04c23.24,29.35,57.83,43.5,93.17,33.78,10.6-2.91,20.81-7.88,30.19-14.69l-123.36-19.09Z" data-original="url(#k)"/>
          <path class="cls-2" d="M217.24,192.33c-6.02,57.45-50.19,100.7-98.65,96.62-28.81-2.43-54.02-21.46-67.47-50.93l166.12-45.69Z" data-original="url(#l)"/>
          <path class="cls-1" d="M56.7,248.54c27.71,45.62,82.76,54.14,122.97,19.03l-122.97-19.03Z" data-original="url(#m)"/>
          <path class="cls-5" d="M99.99,116.78h-10.17c-3.24,5.47-4.67,11.82-4.08,18.15l8.02.21c1.01,3.76-3.35-9.51,6.24-18.36Z" data-original="url(#q)"/>
          <path class="cls-16" d="M91.1,137.58c-4.06.02-8.09-.56-11.98-1.7-.94-.28-1.48-1.27-1.2-2.21s1.27-1.48,2.21-1.2c7.55,2.09,15.53,2.07,23.08-.06.95-.25,1.92.32,2.17,1.27.25.95-.32,1.92-1.27,2.17,0,0,0,0,0,0-4.24,1.12-8.6,1.7-12.99,1.72h0Z" data-original="url(#r)"/>
        </g>
        <g class="cls-11">
          <path class="cls-14" d="M86.11,249.6c-.1-.79-.28-1.32-.91-1.15-.12.03-.34.06-.37-.25l-.03-.42c-.03-.24.06-.37.29-.44,1.23-.22,2.45-.57,3.75-1.06.23-.08.34.01.37.25l.03.42c.03.24-.06.37-.29.44-.64.18-.69.78-.64,1.58.05,1,.66,6.69.83,8.56.06.73.03,1.62-.43,1.93,2.27-.34,4.25.35,5.96,1.22,1.7.87,3.19,1.82,5.08,1.38,1.7-.39,2.03-1.43,1.83-2.13-.17-.59-.68-.84-1.12-.57-.17-.72.22-1.41.93-1.61.51-.14,1.47-.13,1.77.94.52,1.84-1.74,4.17-4.27,4.7-2.55.54-4.46-.25-6.27-1.2-1.76-.89-3.39-1.96-6.17-1.21-.12.03-.34.06-.37-.25l-.03-.47c-.03-.24.06-.37.29-.44.63-.18.69-.78.64-1.58-.11-1.96-.72-7.66-.87-8.63Z"/>
          <path class="cls-14" d="M98.92,251.53l1.33,3.2c.32.75.7.97,1.19.84.23-.06.34.01.36.25v.42c.03.24-.06.38-.29.44-1.02.22-2.42.56-3.47.98-.12.03-.34.06-.36-.25v-.42c-.03-.24.06-.38.29-.44.63-.18.35-.67.06-1.42l-.23-.63c-.08-.23-.21-.3-.44-.23l-2.24.63c-.23.06-.36.19-.38.43l-.16,1.06c-.09.75.13,1.08.85.88.23-.06.34.01.36.25v.42c.03.24-.06.38-.29.44-1.22.22-2.14.48-3.31.93-.12.03-.34.06-.36-.25v-.42c-.03-.24.06-.38.29-.44.71-.2,1.04-.97,1.19-1.83l1.29-7.22c.03-.33-.07-.55-.38-.46-.12.03-.35.06-.37-.25v-.43c0-.25.06-.37.29-.44.79-.15,2.24-.58,2.57-.72.22-.1.37,0,.47.22.6,1.48,1.13,2.99,1.74,4.47ZM97.17,252.7l-.94-2.58-.41-1-.68,4.19c-.04.24.03.31.26.25l1.55-.44c.23-.06.3-.19.22-.42Z"/>
          <path class="cls-14" d="M109.44,254.37c-.23.06-.4.02-.54-.17-.11-.18-3.24-4.88-5.14-7.13.03.1.04.2.05.31.05,1.26.44,4.71.61,5.94.11.77.25,1.33,1.3,1.04.23-.06.34.01.37.25l.03.42c.03.24-.06.37-.29.44-1.25.23-2.47.57-3.69,1.04-.12.03-.34.06-.37-.25l-.03-.42c-.03-.24.06-.37.29-.44.82-.23,1.08-.89,1.03-1.69-.07-1.26-.44-4.71-.61-5.94-.11-.78-.28-1.32-1.3-1.04-.12.03-.34.06-.37-.25l-.03-.42c-.03-.24.06-.37.29-.44.46-.08,2.23-.47,3.37-.95.33-.09.43-.03.59.14l4.2,5.82c-.12-1.39-.38-3.75-.5-4.62-.1-.79-.28-1.32-1.3-1.04-.12.03-.34.06-.37-.25l-.03-.42c-.03-.24.06-.37.29-.44,1.2-.21,2.42-.56,3.69-1.04.23-.08.34.01.37.25l.03.42c.03.24-.06.37-.29.44-.84.24-1.1.9-1.03,1.69.1,2.32.53,5.78.85,7.98.05.36-.14.38-1.45.76Z"/>
          <path class="cls-14" d="M113.24,253.37c-.12.03-.34.06-.37-.25l-.03-.42c-.03-.24.06-.37.29-.44.63-.18.7-.78.64-1.58-.05-1.26-.42-4.71-.59-5.94-.11-.78-.28-1.32-.91-1.15-.12.03-.34.06-.37-.25l-.03-.42c-.03-.24.06-.37.29-.44,1.41-.27,2.78-.78,4.33-1.22,2.96-.83,5.04.94,5.68,3.2.8,2.85-.36,6.78-4.61,7.71-1.39.3-2.64.58-4.3,1.19ZM117.24,251.11l.1-.03c2.53-.59,3.24-3.74,2.58-6.09-.47-1.68-1.73-3.06-3.49-2.57-.9.26-1.16.91-1.11,1.72.07,1.26.42,4.71.59,5.94.11.77.21,1.33,1.34,1.03Z"/>
          <path class="cls-14" d="M123.85,238.91c.67-.19,1.35.24,1.55.95.37,1.3-.56,3.37-1.14,3.53-.18.05-.32-.05-.35-.18-.02-.07-.02-.12,0-.18.28-.52.28-.83.24-.97-.01-.05-.03-.06-.03-.06-.67.19-1.26-.18-1.44-.84-.25-.87.21-1.98,1.18-2.25Z"/>
          <path class="cls-14" d="M131.31,237.41l.4-.47c.26-.29.56-.23.76.11l1.19,1.94.03.1c.07.25-.21.52-.5.6-.23.06-.49.03-.66-.13-.75-.71-1.6-1.22-2.72-.9-.58.16-1.24.7-1.03,1.46.44,1.56,4.73,1.35,5.52,4.16.58,2.07-.95,3.77-3.1,4.37-1.65.46-3.94.4-4.42-1.31-.3-1.07.35-1.84,1.08-2.04.43-.12.91-.06,1.27.35-.38.23-.53.65-.42,1.04.19.67.96,1.19,2.19.84,1.07-.3,1.53-1.14,1.29-1.98-.57-2.02-4.8-1.45-5.57-4.19-.53-1.89,1.15-3.41,2.76-3.87.46-.13,1.24-.26,1.93-.08Z"/>
          <path class="cls-14" d="M149.93,237.3c.02-.17.15-.29.21-.31,2.05-.68,2.75-2.71,2.26-4.46-.36-1.28-1.53-2.59-3.4-2.06-.79.22-.95.85-.88,1.65.25,3.16.48,5.81.9,8.63.11.77.25,1.33.91,1.15.23-.06.34.01.37.25l.03.42c.03.24-.06.37-.29.44-1.28.24-2.5.58-3.75,1.06-.12.03-.34.06-.37-.25l-.03-.42c-.03-.24.06-.37.29-.44.63-.18.7-.78.64-1.58-.11-1.35-.18-2.67-.32-4.03-.16-1.45-.39-2.96-.58-4.6-.08-.74-.77-1.36-2.49-.88-2.35.66-4.26,3.28-3.57,5.75.36,1.28,1.49,2.08,2.58,1.78.99-.28,1.29-1.11,1.11-1.72-.06-.21-.18-.39-.37-.45.43-1.06,1.91-1.04,2.08.34.12,1.24-1.15,2.29-2.64,2.72-1.91.54-4.21-.27-4.82-2.41-.9-3.21,2.09-6.13,5.4-7.06.92-.26,3.56-.84,5.93-1.51,3.46-.97,5.1.66,5.69,2.55.61,1.99-.28,4.41-2.95,5.47-1.73.68-1.95,0-1.94-.02Z"/>
          <path class="cls-14" d="M162.64,239.03c-1-1.16-1.21-1.33-2.48-2.94-.22-.28-.2-.51.11-.6.16-.05.31-.1.32-.11,1.49-.58,2.32-2.43,1.63-3.94-.37-.8-1.04-1.62-2.57-1.19-.69.19-.75.8-.69,1.6.05,1.26.41,4.72.59,5.94.09.77.25,1.33.91,1.15.23-.06.34.01.37.25l.03.42c.03.24-.06.37-.29.44-1.25.23-2.47.57-3.69,1.04-.12.03-.34.06-.37-.25l-.03-.42c-.03-.24.06-.37.29-.44.63-.18.7-.78.64-1.58-.05-1.26-.41-4.72-.59-5.94-.1-.79-.28-1.32-.91-1.15-.12.03-.34.06-.37-.25l-.03-.42c-.03-.24.06-.37.29-.44,1.2-.21,2.57-.72,3.9-1.1,2.98-.84,4.24.37,4.8,1.7.71,1.72-.1,3.86-1.83,4.9l1.17,1.11c.68.64,1.15.85,1.67.7.23-.06.37,0,.41.24l.05.41c.03.24-.15.4-.38.46-.65.15-1.77.46-2.3.65-.31.09-.46-.07-.62-.25Z"/>
          <path class="cls-14" d="M166.19,238.1l-.03-.42c-.03-.24.06-.37.29-.44.63-.18.69-.78.64-1.58-.07-1.26-.42-4.71-.59-5.94-.11-.78-.28-1.32-.91-1.15-.12.03-.34.06-.37-.25l-.03-.42c-.03-.24.06-.37.29-.44,1.17-.2,2.39-.55,3.62-1.02.23-.08.34.01.37.25l.03.42c.03.24-.06.37-.29.44-.64.18-.69.78-.64,1.58.07,1.26.42,4.71.59,5.94.11.77.25,1.33.91,1.15.23-.06.34.01.37.25l.03.42c.03.24-.06.37-.29.44-1.22.22-2.43.56-3.62,1.02-.12.03-.34.06-.37-.25Z"/>
          <path class="cls-14" d="M171.86,236.85c-.12.03-.34.06-.37-.25l-.03-.42c-.03-.24.06-.37.29-.44.63-.18.7-.78.64-1.58-.05-1.26-.42-4.71-.59-5.94-.11-.78-.28-1.32-.91-1.15-.12.03-.34.06-.37-.25l-.03-.42c-.03-.24.06-.37.29-.44,1.41-.27,2.78-.78,4.33-1.22,2.96-.83,5.04.94,5.68,3.2.8,2.85-.36,6.78-4.61,7.71-1.39.3-2.64.58-4.3,1.19ZM175.86,234.59l.1-.03c2.53-.59,3.24-3.74,2.58-6.09-.47-1.68-1.73-3.06-3.49-2.57-.9.26-1.16.91-1.11,1.72.07,1.26.42,4.71.59,5.94.11.77.21,1.33,1.34,1.03Z"/>
          <path class="cls-14" d="M181.92,233.66l-.03-.47c-.02-.24.07-.32.3-.39.63-.18.67-.83.62-1.63-.07-1.26-.43-4.62-.6-5.85-.11-.78-.28-1.32-.91-1.15-.12.03-.34.06-.37-.25l-.04-.45c-.03-.24.06-.37.29-.44,2.18-.53,4.14-1.08,6.27-1.77.23-.08.4-.02.56.16l1.55,2.33c.22.33-.65.73-.98.38-.74-.79-1.88-1.5-3.18-1.13l-.41.12c-.64.18-.69.78-.64,1.58.03.56.11,1.6.16,2.03.02.24.13.32.36.25l.97-.27c.23-.06.54-.42.53-.7v-.28c-.02-.24.05-.37.28-.44l.61-.17c.23-.06.34.01.37.25-.01.91.09,2.09.29,2.9.03.24-.06.37-.29.44l-.61.17c-.23.06-.36,0-.37-.25l-.03-.31c-.03-.31-.36-.52-.69-.43l-.92.26c-.23.06-.32.2-.29.44.02.24.17,1.55.23,1.96.09.77.37,1.3,1.58.96l.51-.14c1.23-.35,2.15-2.01,2.36-3.15.07-.43,1.03-.68.99-.26l-.4,3.45c-.02.24-.16.37-.39.43-2.51.6-4.84,1.24-7.32,2.06-.12.03-.35.06-.37-.25Z"/>
        </g>
      </g>
    </g>
  </g>
</svg>